<?xml version="1.0" encoding="UTF-8"?>
<svg xmlns="http://www.w3.org/2000/svg" version="1.1" viewBox="0 0 128 128">
  <!-- Generator: Adobe Illustrator 30.0.0, SVG Export Plug-In . SVG Version: 2.1.1 Build 123)  -->
  <defs>
    <style>
      .st0 {
        fill: #ef4823;
      }

      .st1 {
        fill: #102e50;
      }

      .st2 {
        fill: #fad01d;
      }

      .st3 {
        isolation: isolate;
      }

      .st4 {
        fill: #714ea0;
      }

      .st5 {
        fill: #48a0d9;
      }

      .st6 {
        fill: #f58021;
      }

      .st7 {
        fill: #03b178;
      }

      .st8 {
        fill: #351231;
        mix-blend-mode: multiply;
        opacity: .2;
      }
    </style>
  </defs>
  <g class="st3">
    <g id="Layer_1">
      <ellipse class="st1" cx="64.3" cy="64" rx="64.7" ry="64"/>
      <g>
        <g>
          <circle class="st6" cx="102" cy="96.3" r="8.8" transform="translate(-35.5 123.9) rotate(-54.7)"/>
          <path class="st0" d="M105.6,76.8c-2.1-2.1-2-5.6.1-7.6s5.6-2,7.6.1c2.1,2.1,2,5.6-.1,7.6-2.1,2.1-5.6,2-7.6-.1Z"/>
          <path class="st0" d="M95.1,40c-.7,4.5-.8,9.1.9,12.9,1,2.2,2.4,3.8,4.1,5.1.7.5,1.2.9,1.8,1.4,6.5,5.8-.6,15.7-8.1,11.5-3.1-1.8-5.4-4.8-6.7-8-3.4-8.4.4-18.6,8-22.9h0Z"/>
          <path class="st8" d="M87.1,62.9c1.3,3.2,3.6,6.2,6.7,8,1.6.9,3.2,1.1,4.6.9-.4-.4-.8-.9-1.2-1.3-2.3-2.7-3.9-5.7-4.8-9.6-1.4-6.5.2-13.6,2.6-20.4,0-.2,0-.3,0-.5-.1,0-.3,0-.4.1-7.3,4.5-11,14.4-7.6,22.7Z"/>
          <path class="st6" d="M95.2,40c-3.4,6.5-6,13.6-5.5,20.4.4,4,1.6,7.1,3.5,10.1.8,1.1,1.4,2,2,3.1,6.9,12.4-9.3,23.9-18.7,13.5-3.8-4.5-5.7-10.3-6-16-.8-14.8,10.5-28.4,24.6-31.1h0Z"/>
        </g>
        <g>
          <circle class="st2" cx="19.2" cy="82" r="8.8" transform="translate(-63.4 65.3) rotate(-65.4)"/>
          <circle class="st7" cx="35.6" cy="100.1" r="5.4" transform="translate(-33.3 19.2) rotate(-20.8)"/>
          <path class="st7" d="M71.4,104.2c-3.5-2.8-7.5-5.2-11.6-5.6-2.4-.2-4.5.1-6.5.9-.8.3-1.4.6-2.1.9-8.2,2.7-13.3-8.3-5.9-12.8,3.1-1.8,6.9-2.2,10.3-1.7,9,1.3,15.9,9.6,15.9,18.4h0Z"/>
          <path class="st8" d="M55.6,85.8c-3.4-.5-7.2,0-10.3,1.7-1.6.9-2.6,2.2-3.1,3.5.6-.1,1.1-.2,1.8-.4,3.5-.6,6.9-.5,10.7.6,6.3,2.1,11.7,7,16.3,12.4.1.1.3.2.4.3,0-.1,0-.3,0-.4-.2-8.6-7-16.7-15.9-17.9Z"/>
          <path class="st2" d="M71.3,104.2c-4-6.2-8.8-12-14.9-14.9-3.6-1.6-7-2.2-10.5-2-1.3,0-2.5.2-3.7.2-14.2-.2-16.1-20-2.3-22.9,5.8-1.1,11.8.2,16.8,2.8,13.2,6.7,19.4,23.3,14.7,36.8h0Z"/>
        </g>
        <g>
          <circle class="st5" cx="73.4" cy="17.5" r="8.8" transform="translate(40 85.1) rotate(-77.1)"/>
          <path class="st4" d="M54.7,24.1c-.8,2.9-3.8,4.5-6.7,3.7-2.9-.8-4.5-3.8-3.7-6.7.8-2.9,3.8-4.5,6.7-3.7,2.9.8,4.5,3.8,3.7,6.7Z"/>
          <path class="st4" d="M28.1,51.6c4.2-1.7,8.2-3.9,10.7-7.3,1.4-2,2.1-3.9,2.4-6.1,0-.8.2-1.5.3-2.2,1.8-8.5,13.9-7.3,14.1,1.3,0,3.6-1.5,7.1-3.6,9.8-5.6,7.2-16.3,8.9-23.9,4.5h0Z"/>
          <path class="st8" d="M51.9,47.1c2.2-2.7,3.6-6.2,3.6-9.8,0-1.8-.6-3.3-1.5-4.4-.2.5-.4,1.1-.6,1.7-1.2,3.3-3,6.2-5.9,8.9-5,4.4-11.9,6.6-18.9,7.9-.2,0-.3.1-.5.2,0,0,.2.2.3.3,7.6,4.1,18,2.3,23.5-4.8Z"/>
          <path class="st5" d="M28.1,51.5c7.4-.3,14.7-1.6,20.4-5.5,3.2-2.3,5.4-5,7-8.1.6-1.2,1-2.2,1.7-3.3,7.2-12.2,25.3-3.9,21,9.4-2,5.5-6.1,10.1-10.8,13.2-12.4,8.1-29.9,5.1-39.2-5.7h0Z"/>
        </g>
      </g>
    </g>
  </g>
</svg>